<svg xmlns="http://www.w3.org/2000/svg" viewBox="0 0 960 260" role="img" aria-labelledby="title desc">
  <title id="title">Awesome Stars</title>
  <desc id="desc">Awesome Stars wordmark with a large gold star.</desc>
  <rect width="960" height="260" rx="22" fill="#24292f"/>
  <circle cx="132" cy="130" r="76" fill="#30363d"/>
  <path fill="#f2cc60" d="m132 52 18.3 37.1 41 6-29.7 28.9 7 40.8-36.6-19.3-36.6 19.3 7-40.8-29.7-28.9 41-6L132 52z"/>
  <path fill="#fff8c5" d="m132 78.5 11.4 23.1 25.5 3.7-18.5 18 4.4 25.4-22.8-12-22.8 12 4.4-25.4-18.5-18 25.5-3.7L132 78.5z"/>
  <text x="250" y="117" fill="#f6f8fa" font-family="-apple-system,BlinkMacSystemFont,Segoe UI,Helvetica,Arial,sans-serif" font-size="54" font-weight="700">Awesome Stars</text>
  <text x="252" y="164" fill="#c9d1d9" font-family="-apple-system,BlinkMacSystemFont,Segoe UI,Helvetica,Arial,sans-serif" font-size="26">Live GitHub stats for awesome lists</text>
  <g fill="#8b949e" font-family="-apple-system,BlinkMacSystemFont,Segoe UI,Helvetica,Arial,sans-serif" font-size="20">
    <text x="252" y="204">stars</text>
    <text x="330" y="204">forks</text>
    <text x="410" y="204">last push</text>
  </g>
</svg>
